<svg id="Capa_1" enable-background="new 0 0 512.002 512.002" height="512" viewBox="0 0 512.002 512.002" width="512" xmlns="http://www.w3.org/2000/svg"><g><g><path d="m196.69 136.921c-27.32-36.95-71.2-60.92-120.69-60.92 0 49.07 23.56 92.63 59.99 120l73.98 19.48z" fill="#8bf2cf"/><path d="m315.31 136.921-12.95 77.77 73.47-18.69h.18c36.43-27.37 59.99-70.93 59.99-120-49.49 0-93.37 23.97-120.69 60.92z" fill="#8bf2cf"/><path d="m256 10.001c-.046.104-60 66.434-60 141 0 23.35 5.89 45.32 13.97 64.48l45.49 39.79 46.9-40.58c7.92-18.98 13.64-40.66 13.64-63.69 0-75.115-59.807-140.562-60-141z" fill="#ffda8f"/><path d="m256 254.571c12.52-16.26 28.3-29.88 46.36-39.88 21.75-12.05 46.81-18.85 73.47-18.69h.18c39.9.18 83.53-18.62 111.74-46.82l13.17-13.18c5.8 40.61-12.22 79.14-43.47 101.42 19.85 16.82 34.92 38.75 43.47 63.58 0 0-66.44 75-141 75-27.64 0-53.34-10.31-74.74-23.28-18.15-11.01-41.29-11.01-59.44 0-21.4 12.97-47.1 23.28-74.74 23.28-74.56 0-141-75-141-75 9.07-24.58 24.3-46.3 44.08-63.14-31.62-22.22-48.72-60.98-42.88-101.86l13.18 13.18c28.24 28.24 70.77 47.06 110.71 46.82h.9c26.9 0 52.15 7.08 73.98 19.48 17.73 10.07 33.21 23.64 45.49 39.79.18-.23.36-.47.54-.7zm183 31.43s-26.86-30-60-30-60 30-60 30 26.86 30 60 30 60-30 60-30zm-246 0s-26.86-30-60-30-60 30-60 30 26.86 30 60 30 60-30 60-30z" fill="#ff7b79"/></g><g><path d="m446.45 292.671c3.399-3.797 3.399-9.544 0-13.341-1.219-1.361-30.269-33.33-67.45-33.33s-66.231 31.969-67.45 33.33c-3.399 3.797-3.399 9.544 0 13.341 1.219 1.361 30.269 33.33 67.45 33.33s66.232-31.969 67.45-33.33zm-67.45 13.33c-19.066 0-36.307-12.119-45.52-20.019 9.179-7.901 26.349-19.981 45.52-19.981 19.063 0 36.301 12.115 45.519 20.019-9.178 7.901-26.348 19.981-45.519 19.981z"/><path d="m133 246.001c-37.182 0-66.232 31.969-67.45 33.33-3.4 3.797-3.4 9.543 0 13.341 1.218 1.361 30.269 33.33 67.45 33.33s66.232-31.969 67.45-33.33c3.4-3.797 3.4-9.543 0-13.341-1.218-1.361-30.268-33.33-67.45-33.33zm0 60c-19.051 0-36.279-12.099-45.498-20 9.224-7.905 26.45-20 45.498-20s36.273 12.095 45.497 20c-9.223 7.905-26.449 20-45.497 20z"/><path d="m510.82 134.587c-.535-3.75-3.145-6.876-6.739-8.074-3.592-1.198-7.556-.261-10.234 2.419l-13.165 13.176c-19.882 19.874-47.571 34.473-75.534 40.643 25.849-28.848 40.852-66.204 40.852-106.75 0-5.523-4.478-10-10-10-42.826 0-83.796 16.971-114.306 48.086-13.826-60.977-56.267-108.568-58.272-110.788-1.896-2.1-4.593-3.298-7.422-3.298s-5.525 1.198-7.422 3.298c-2.005 2.22-44.444 49.809-58.272 110.789-30.471-31.077-71.423-48.087-114.306-48.087-5.523 0-10 4.477-10 10 0 40.408 14.908 77.878 41.017 106.929-27.768-6.066-55.503-20.757-75.566-40.82l-13.18-13.18c-2.678-2.679-6.64-3.613-10.233-2.416-3.593 1.198-6.202 4.323-6.737 8.073-5.678 39.742 8.514 78.468 37.374 103.854-16.8 16.635-29.85 36.856-38.057 59.098-1.275 3.457-.547 7.335 1.896 10.093 1.06 1.197 11.164 12.459 27.485 26.091v168.278c0 5.523 4.477 10 10 10s10-4.477 10-10v-152.937c26.84 18.823 62.63 36.937 101 36.937 25.959 0 52.849-8.32 79.927-24.73 14.903-9.041 34.162-9.042 49.07.002 27.073 16.408 53.964 24.728 79.923 24.728 13.281 0 27.142-2.214 41.197-6.582 5.273-1.639 8.221-7.243 6.582-12.517-1.64-5.274-7.244-8.221-12.517-6.583-12.132 3.77-23.996 5.681-35.263 5.681-22.252 0-45.654-7.345-69.554-21.83-21.203-12.863-48.606-12.863-69.809-.002-23.903 14.487-47.306 21.832-69.557 21.832-58.988 0-114.112-51.693-129.366-67.256 8.6-20.511 21.971-38.833 38.929-53.27 4.973-4.234 4.616-12.038-.733-15.796-23.236-16.328-37.38-42.159-39.484-70.472 30.604 28.997 73.813 46.797 113.931 46.796 47.839 0 87.71 21.767 113.224 55.32 1.877 2.469 4.793 3.927 7.895 3.947.104.001.205-.013.309-.015.099.003.197.015.297.015 4.229 0 7.838-2.63 9.299-6.34 26.672-33.557 66.746-52.818 109.328-52.927 18.247 2.323 75.511-7.598 117.024-46.678-2.362 27.715-16.68 53.321-40.006 69.952-2.513 1.792-4.058 4.642-4.187 7.725s1.172 6.053 3.526 8.047c17.039 14.438 30.232 32.875 38.409 53.601-4.063 4.168-11.027 10.982-20.151 18.669-4.224 3.559-4.763 9.867-1.204 14.091 3.559 4.225 9.868 4.763 14.091 1.204 16.15-13.607 25.869-24.525 26.275-24.983 2.392-2.699 3.144-6.477 1.97-9.887-7.776-22.583-20.655-43.042-37.548-59.784 29.15-25.727 43.575-64.295 37.994-103.372zm-85.194-48.196c-2.847 39.326-21.811 75.07-53.069 99.644-18.146.271-36.119 3.627-53.045 9.86 4.304-15.207 6.487-30.235 6.487-44.893 0-3.642-.137-7.355-.405-11.084 24.304-31.095 60.899-50.581 100.032-53.527zm-239.221 53.526c-.268 3.729-.405 7.443-.405 11.084 0 14.796 2.228 29.975 6.619 45.344-16.925-6.391-34.92-9.891-53.146-10.288-31.288-24.598-50.252-60.342-53.099-99.666 39.133 2.946 75.729 22.432 100.031 53.526zm79.595 88.865v-122.781c0-5.523-4.478-10-10-10s-10 4.477-10 10v123.795c-8.502-8.057-17.883-15.131-28.041-21.196-7.931-19.711-11.959-39.074-11.959-57.599 0-44.276 23.322-90.653 50.009-125.213 26.855 34.716 49.991 80.993 49.991 125.213 0 18.263-3.907 37.329-11.604 56.716-10.284 5.994-19.773 13.043-28.396 21.065z"/><circle cx="439" cy="351.001" r="10"/></g></g></svg>